<?xml version="1.0" encoding="utf-8"?>
<!-- Generator: Adobe Illustrator 22.0.1, SVG Export Plug-In . SVG Version: 6.00 Build 0)  -->
<svg version="1.1" id="Layer_1" xmlns="http://www.w3.org/2000/svg" xmlns:xlink="http://www.w3.org/1999/xlink" x="0px" y="0px"
	 viewBox="0 0 194 159" style="enable-background:new 0 0 194 159;" xml:space="preserve">
<style type="text/css">
	.st0{fill-rule:evenodd;clip-rule:evenodd;fill:#634949;}
	.st1{fill-rule:evenodd;clip-rule:evenodd;fill:#FFFFFF;}
	.st2{fill-rule:evenodd;clip-rule:evenodd;fill:#FDF2E5;}
	.st3{fill-rule:evenodd;clip-rule:evenodd;fill:#F4B1B1;}
	.st4{fill-rule:evenodd;clip-rule:evenodd;fill:#C8C9CA;}
	.st5{fill-rule:evenodd;clip-rule:evenodd;fill:#3E3A39;}
	.st6{fill-rule:evenodd;clip-rule:evenodd;fill:#595857;}
	.st7{fill-rule:evenodd;clip-rule:evenodd;fill:#9E9E9F;}
	.st8{fill-rule:evenodd;clip-rule:evenodd;fill:#EADAC9;}
	.st9{fill:#634949;}
</style>
<path class="st0" d="M57.7,109.2C65.1,93.7,81.3,83,100,83s34.9,10.7,42.3,26.2C153.2,98.6,160,84.1,160,68c0-32-26.9-58-60-58
	S40,36,40,68C40,84.1,46.8,98.6,57.7,109.2z"/>
<path class="st1" d="M127.4,119.4c1.4-1.1,2.4-2.8,2.4-4.7c0-1.5-0.6-2.9-1.5-3.9c1.8-1.2,3.1-3.2,3.1-5.6c0-2-0.8-3.7-2.2-4.9
	c0.7-1,1.2-2.2,1.2-3.5c0-1.5-0.6-2.9-1.5-3.9l0-0.1c1.7-0.8,2.9-2.5,2.9-4.6c0-1.3-0.5-2.5-1.3-3.4c1.1-0.9,1.7-2.3,1.7-3.8
	c0-1.3-0.5-2.5-1.3-3.3c1.2-1.1,1.9-2.6,1.9-4.3c0-3-2.3-5.5-5.2-5.8c0.7-1,1.1-2.2,1.1-3.6c0-3.6-2.9-6.4-6.4-6.4
	c-0.6,0-1.2,0.1-1.8,0.3c-0.4-0.4-0.8-0.8-1.2-1.1c0.6-0.9,0.9-2,0.9-3.1c0-3.1-2.5-5.6-5.6-5.7c-1-1.7-2.9-2.9-5-2.9
	c-1.6,0-3.1,0.7-4.2,1.8c-0.6-1.3-1.9-2.1-3.4-2.1c-1.5,0-2.8,0.9-3.4,2.1c-1-1.1-2.5-1.8-4.1-1.8c-2.1,0-3.9,1.2-4.8,2.9
	c-0.7-0.3-1.4-0.5-2.2-0.5c-2.8,0-5.1,2.3-5.1,5.1c0,0.4,0,0.8,0.1,1.2c-1.9,1.5-3.7,3.2-5.3,5.2c-0.3,0-0.6-0.1-0.9-0.1
	c-3.1,0-5.5,2.5-5.5,5.5c0,1.4,0.5,2.7,1.4,3.7l0,0.1c-2.3,0.4-4.1,2.4-4.1,4.8c0,1.5,0.6,2.8,1.7,3.7c-2.1,0.3-3.7,2.1-3.7,4.3
	c0,1.7,1,3.2,2.5,3.9c-1.3,0.8-2.1,2.3-2.1,3.9c0,2,1.3,3.7,3.1,4.4c0,0.3,0,0.6,0,0.8c-2.1,1.2-3.6,3.4-3.6,6c0,2.1,1,4,2.4,5.2
	c-1.9,1-3.2,3-3.2,5.3c0,3.1,2.3,5.6,5.2,5.9l0,0.7c-0.7,0.3-1.4,0.8-2,1.3c9.2,5.5,19.9,8.6,31.5,8.6c10.3,0,19.9-2.5,28.4-6.9
	C128.1,119.8,127.7,119.6,127.4,119.4z"/>
<path class="st2" d="M99.1,72.4c8.6,0,18.5,2.1,19.7,9.8c1.7,10.9-9.2,24.4-20.6,24.3c-11.7-0.1-22.6-14-20.4-25
	C79.2,74.1,89.8,72.4,99.1,72.4z"/>
<path class="st1" d="M85.8,56.2c-2.1-2.8-9-11.6-15-16.7c-6.8-5.8-13.1-7.4-11.4,4c1,6.6,4,10.7,9.9,14.4c5.9,3.7,10.5,3.6,10.5,3.6
	L85.8,56.2z"/>
<path class="st3" d="M63.3,39.9C62.2,47.9,73.8,59,79.4,58.3c2.4-0.3-2.6-9.1-8.8-15.3C64.4,36.7,63.3,39.9,63.3,39.9z"/>
<path class="st1" d="M113.8,56.4c2.1-2.8,9-11.6,15-16.7c6.8-5.8,13.1-7.4,11.4,4c-1,6.6-4,10.7-9.9,14.4
	c-5.9,3.7-10.5,3.6-10.5,3.6L113.8,56.4z"/>
<path class="st3" d="M136.3,40.1c1.1,8.1-10.5,19.1-16.1,18.4c-2.4-0.3,2.6-9.1,8.8-15.3C135.2,36.9,136.3,40.1,136.3,40.1z"/>
<path class="st1" d="M116.5,71.2c0.8,0.8-2.1,5-5.1,5.3c-4.7,0.5-3.2-1.5-4.3-1.5c-0.1,0-1,0.9-1.2,1c-5.2,2.7-8.4-2.2-8.4-1.8
	c0,1.7-4.6,4.9-7.4,1.2c0,0-0.5,1-1.4,1.6c-3.7,2.5-4.3-0.8-5-0.1c-2.8,3-7.3,0-7.3-2.5c0-5.5,6.3-5,6.7-6c2-4.5,1.8-3.3,5.8-3.3
	c1.8,0,2.2-3.3,8.8-0.8c1.3,0.5,3.1-3.9,10-0.1c2.5,1.4-0.4,0.4,3.3-1.1c2.7-1.1,7.1,1.4,7,4.8c0,1.1-0.2,2.5-1.3,3.1
	C116.6,71.3,116.5,71.3,116.5,71.2z"/>
<path class="st4" d="M109.6,52.9c-2.7-2-4-1.7-4.7-0.9c-0.6,0.8-0.6,2.2-0.7,2.9c0,0.4,0,0.6-0.1,0.7c-0.1,0-0.2,0-0.3-0.2
	c-0.1-0.2-1.2-0.5-2.3-0.5c-0.4,0-0.8,0-1.1,0.2c-0.3,0.1-0.5,0.3-0.7,0.6c-0.2,0.6,0,1.6,1.1,3.2l-0.2,0.1
	c-1.1-1.7-1.3-2.7-1.1-3.4c0.1-0.4,0.4-0.6,0.8-0.8c0.3-0.1,0.8-0.2,1.2-0.2c1.1,0,2.2,0.4,2.5,0.6c0-0.1,0-0.2,0-0.3
	c0-0.8,0.1-2.2,0.7-3.1c0.7-1,2.1-1.3,5,0.8L109.6,52.9L109.6,52.9z M104.1,55.4C104.1,55.4,104.1,55.4,104.1,55.4
	C104,55.4,104,55.5,104.1,55.4z"/>
<path class="st4" d="M89.5,62.1c-1.9-2.5-3.3-2.5-4.4-1.7c-1.1,0.8-1.7,2.5-2,3.3C83.1,63.8,83,64,83,64l-0.1,0.1L82.8,64
	c0,0-2.5-2.3-4.4-0.8c-0.7,0.5-0.6,2.1-0.6,3.2c0,0.2,0,0.5,0,0.6h-0.2c0-0.2,0-0.4,0-0.6c0-1.2-0.1-2.8,0.7-3.4
	c1.8-1.4,4,0.3,4.6,0.7l0.1-0.2c0.3-0.8,0.9-2.5,2.1-3.4c1.1-0.9,2.6-0.9,4.7,1.8L89.5,62.1z"/>
<path class="st4" d="M120.5,64.1c1.3-0.7,2.2-0.7,2.8-0.3c0.3,0.2,0.5,0.4,0.6,0.7c0.1,0.3,0.2,0.6,0.1,0.9
	c-0.1,0.8-0.5,1.7-1.1,2.1c0.8,0.2,1.3,0.6,1.7,1.1c0.3,0.4,0.5,0.9,0.6,1.4c0,0.5,0,1-0.2,1.3c-0.2,0.4-0.5,0.8-0.9,0.9l-0.1-0.2
	c0.4-0.2,0.6-0.4,0.8-0.8c0.2-0.4,0.3-0.8,0.2-1.2c0-0.4-0.2-0.9-0.5-1.3c-0.4-0.5-1-0.8-1.8-1.1l-0.3-0.1l0.3-0.1
	c0.7-0.3,1.2-1.2,1.3-2c0-0.3,0-0.6-0.1-0.8c-0.1-0.2-0.2-0.4-0.5-0.6c-0.5-0.3-1.3-0.3-2.5,0.4L120.5,64.1z"/>
<g>
	<path class="st5" d="M97,75.3c-0.2,0-0.4,0-0.5,0c-0.1,0.6-0.1,1.1-0.2,1.7c-0.9,5.2-3.2,10.5-8.6,12.2c-2.6,0.8-5.5,0.8-8-0.2
		c-3.6-1.4-5.4-3.2-6.7-6.9c-0.7-2-1.2-4.1-1.6-6.2c-0.2-0.9-0.5-1.5-1.4-1.8c-0.3-0.1-0.4-0.3-0.4-0.6c0-0.7,0-1.4-0.1-2.1
		c0-0.3,0.2-0.5,0.5-0.5c0.4-0.1,0.8-0.2,1.2-0.2c2.6-0.5,5.3-0.8,8-0.9c4.5-0.3,9,0.2,13.4,1.1c1.5,0.3,2.9,1,3.7,2.4
		c0.1,0.2,0.2,0.3,0.5,0.3c1.5,0,2.8,0,4.3,0c0.2,0,0.3-0.1,0.5-0.3c0.8-1.4,2.2-2.1,3.7-2.4c4.4-0.9,8.9-1.4,13.4-1.1
		c2.7,0.2,5.3,0.4,8,0.9c0.4,0.1,0.8,0.2,1.2,0.2c0.3,0.1,0.5,0.2,0.5,0.5c0,0.7,0,1.4-0.1,2.1c0,0.3-0.2,0.5-0.4,0.6
		c-0.9,0.3-1.2,1-1.4,1.8c-0.4,2.1-0.8,4.2-1.6,6.2c-1.3,3.6-3.1,5.5-6.7,6.9c-2.5,1-5.4,1-8,0.2c-5.3-1.7-7.7-7-8.6-12.2
		c-0.1-0.5-0.1-1.1-0.2-1.7c-0.2,0-0.4,0-0.5,0C99.2,75.2,98.2,75.2,97,75.3z"/>
	<path class="st6" d="M87.2,87.9c4.2-1.2,5.8-4.6,6.6-8.6c0.2-1,0.3-2.1,0.2-3.1c-0.2-1.9-1.3-3.1-3-3.8c-3.2-1.3-8.7-1.4-12.2-1.2
		c-0.7,0-1.4,0.2-2.1,0.3c-1.8,0.3-3.2,1.8-3.3,3.5c-0.6,5,1.3,11,6.5,12.7C82.3,88.5,84.8,88.6,87.2,87.9z"/>
	<path class="st6" d="M103.6,79.3c0.8,4,2.4,7.4,6.6,8.6c2.5,0.7,4.9,0.7,7.3-0.1c5.2-1.7,7.1-7.7,6.5-12.7
		c-0.2-1.7-1.6-3.3-3.3-3.5c-0.7-0.1-1.4-0.3-2.1-0.3c-3.5-0.2-9-0.2-12.2,1.2c-1.7,0.7-2.8,1.9-3,3.8
		C103.3,77.2,103.4,78.3,103.6,79.3z"/>
	<path class="st7" d="M83.6,88.4l7.2-16.1c-2-0.8-4.7-1.1-7.4-1.2l-6.6,14.8c0.9,0.8,1.9,1.4,3.1,1.8C81.1,88.1,82.4,88.4,83.6,88.4
		z"/>
	<path class="st7" d="M113.6,71.2l-6.7,15c0.9,0.8,1.9,1.3,3.3,1.7c1.2,0.4,2.4,0.5,3.7,0.5l7.5-16.7c-0.2-0.1-0.4-0.1-0.6-0.2
		c-0.7-0.1-1.4-0.3-2.1-0.3C117.1,71.1,115.4,71.1,113.6,71.2z"/>
</g>
<path class="st8" d="M98.6,81.6c4.6,0,8.3,4.9,8.3,10.9s-3.7,10.9-8.3,10.9s-8.3-4.9-8.3-10.9c0-3.2,1.1-6.1,2.7-8.1
	C94.5,82.7,96.5,81.6,98.6,81.6z"/>
<path class="st5" d="M98.6,84.8c-0.5-0.3-2-1.1-3.1-0.3c-1.2,0.9-1.5,2.4-0.3,3c1.3,0.6,1.7-0.3,2.4,0.3c0.7,0.7,0.6,8.1,0.5,8.5
	c-0.2,0.5-0.6,1.3-1.8,1.3c-1.2,0.1-3.6-0.9-3.4-1.7c0.2-0.8,0.5-0.6,0.5-0.6s-0.1-0.3-0.5,0c-0.4,0.3-0.4,0.6-0.3,1.2
	c0.1,0.5,3,1.7,3.6,1.7c0.7,0,1.2-0.2,1.7-0.6c0.3-0.3,0.5-0.5,0.6-0.6c0.1,0.1,0.3,0.3,0.6,0.6c0.5,0.4,1.1,0.7,1.7,0.6
	c0.7,0,3.5-1.2,3.6-1.7c0.1-0.5,0.1-0.9-0.3-1.2c-0.4-0.3-0.5,0-0.5,0s0.3-0.2,0.5,0.6c0.2,0.8-2.2,1.7-3.4,1.7
	c-1.2-0.1-1.6-0.9-1.8-1.3c-0.2-0.5-0.2-7.9,0.5-8.5c0.7-0.7,1.2,0.2,2.4-0.3c1.3-0.6,0.9-2-0.3-3C100.6,83.6,99.2,84.5,98.6,84.8z"
	/>
<g>
	<path class="st9" d="M14.5,142.5c1.3-12.1,4.7-37.5,7.1-46c1.5-1.1,4.4,0.7,5.4,1.7c-1.9,8.4-5.7,29.4-7.1,42.7
		c7.3-1.9,12.4-2.3,15.8-2.1c0.9,0.1,3.9,5.1,1.9,5.1c-4.9,0.1-10.2,0.7-18.2,2.6c-0.1,0.7-0.1,1.3-0.1,1.9
		c-0.1,1.5-3.1,0.2-4.5-0.7c-0.1,0-0.3,0-0.3,0.1c-1.7,0.4-4.2-3.9-3-4.3C12.5,143.1,13.5,142.8,14.5,142.5z"/>
	<path class="st9" d="M49.5,141c-1.1,2.3-3.8,4.9-7.1,4.9c-4.9,0-8.7-5.1-8.7-13.2c0-12.1,5.5-24.1,13.6-24.1c4.5,0,6.5,2.9,6.5,4.9
		c0,0.3-0.1,0.7-0.1,0.7c0.6,0.2,3.2,0.3,2.8,1.8c-2.1,7.5-3.7,14.4-3.7,19.7c0,3.1,0.5,5.1,2.8,5.1c3.5,0,4.4-4.3,4.9-8.3
		c0,0,1.9-0.2,1.9,1.8c0,3.5-2.7,11.1-7.8,11.1c-3.1,0-4.7-2.8-4.8-4.4H49.5z M41.8,141.3c3.9,0,7.5-16,7.5-18.4
		c0,0-2.1-0.4-3.1-1.5c1.4-1.9,2.3-4.3,2.3-6.7c0-0.6,0-2.2-1.3-2.2c-4.9,0-7.9,16-7.9,23C39.4,139.7,40.1,141.3,41.8,141.3z"/>
	<path class="st9" d="M71.1,123.1c-2.1,5.9-5.3,15.8-5.2,22.1c0,0-0.9,1-2.3,1c-3,0-4.5-3.2-4.5-8.7c0-11.5,3.1-27.6,4.7-27.6
		c2.1,0,4.2,1.3,4,2.3c-1.3,6.6-3.4,15.2-3.4,19.5h0.3c2.5-7.4,4.9-14.3,6.9-19.2c0.3-0.6,0.9-0.6,1.5-0.6c1.8,0,4.5,0.9,4.3,3
		c-0.4,4.7-1.5,12.1-1.6,17.4H76c2.5-7.4,4.7-16,8.5-23.2c0.3-0.6,0.9-0.6,1.5-0.6c1.8,0,4.9,1.2,4.7,3.3
		c-0.5,6.8-4.1,16.9-4.1,24.4c0,3.4,0.9,5.1,2.7,5.1c2.2,0,3.5-3.5,4.1-5.3c0,0,1.5,0.1,1.5,1.8c0,2.9-2.9,8-7.5,8
		c-4.5,0-5.8-4.8-5.8-10.2c0-2.9,1.3-9.8,2-13.2h-0.8c-2.7,5.9-5.9,18.4-5.8,24.7c0,0-0.9,1-2.3,1c-3,0-3.5-2.9-3.6-7.9
		c-0.1-5.5,0.2-11.8,0.7-17.1H71.1z"/>
	<path class="st9" d="M108.2,141c-1.1,2.3-3.8,4.9-7.1,4.9c-4.9,0-8.7-5.1-8.7-13.2c0-12.1,5.5-24.1,13.6-24.1
		c4.5,0,6.5,2.9,6.5,4.9c0,0.3-0.1,0.7-0.1,0.7c0.6,0.2,3.2,0.3,2.8,1.8c-2.1,7.5-3.7,14.4-3.7,19.7c0,3.1,0.5,5.1,2.8,5.1
		c3.5,0,4.4-4.3,4.9-8.3c0,0,1.9-0.2,1.9,1.8c0,3.5-2.7,11.1-7.8,11.1c-3.1,0-4.7-2.8-4.8-4.4H108.2z M100.4,141.3
		c3.9,0,7.5-16,7.5-18.4c0,0-2.1-0.4-3.1-1.5c1.4-1.9,2.3-4.3,2.3-6.7c0-0.6,0-2.2-1.3-2.2c-4.9,0-7.9,16-7.9,23
		C98,139.7,98.7,141.3,100.4,141.3z"/>
	<path class="st9" d="M131.1,118.6c-3.7,0.3-9.3,2.5-11.9,3.1c-0.5,0.1-1.8-3.4-1.8-4.6c0-3.3,17.2-5.7,19.5-5.7
		c1.1,0,2.2,2.5,2.2,3.3c-2.5,2.9-16.8,20.2-17.6,24.1c5.2-1.1,8.9-2.3,14.4-2.3c1.7,0.3,2.5,4.2,2.5,4.7c0,1.3-8.1,1.7-10.5,2.2
		c-2.8,0.7-6.9,2-9.4,3.2c-2.3,0.4-2.3-2.5-2.3-4.2C116.1,137.1,126.5,124.1,131.1,118.6z"/>
	<path class="st9" d="M146.9,108.7c0.9,0.5,1.5,1.1,1.7,1.7c0,0,0.9-0.8,2.3-0.8c7,0,8.1,6.5,7.9,13.4c-0.3,7.3-2.8,23.2-11.4,23.2
		c-7,0-9.5-9.2-9.3-16.6C138.5,121,142.7,110,146.9,108.7z M146.3,141.6c6.2,0,8.3-17.8,8.4-21.8c0.1-1.9,0.5-6.7-2.2-6.7
		c-3.9,0-7,11.7-7.7,15.5c-0.1,0.3-1.5-0.3-1.9-0.6c0,0-0.4,1.9-0.5,4.3C142.2,137.4,143.5,141.6,146.3,141.6z"/>
	<path class="st9" d="M171.6,122.4c-2.7,5.9-6.3,17.3-6.2,23.6c0,0-0.9,1-2.3,1c-3,0-3.8-3.6-3.8-8.7c0-14.2,1.7-27.6,5.8-27.6
		c0.8,0,2.3,0.1,2.1,1.8c-0.8,6.4-2.7,12.6-2.7,19.2h0.3c2.5-7.4,5.1-15.4,8.8-22.6c0.3-0.6,0.9-0.6,1.5-0.6c1.8,0,4.9,1.2,4.7,3.3
		c-0.5,6.8-4.1,15.5-4.1,24.4c0,3.4,0.9,5.1,2.7,5.1c2.2,0,3.5-3.5,4.1-5.3c0,0,1.5,0.1,1.5,1.8c0,2.9-2.9,8-7.5,8
		c-4.5,0-5.8-4.8-5.8-10.2c0-2.9,1.1-9.8,1.7-13.2H171.6z"/>
</g>
<g>
	<path class="st9" d="M14.5,142.5c1.3-12.1,4.7-37.5,7.1-46c1.5-1.1,4.4,0.7,5.4,1.7c-1.9,8.4-5.7,29.4-7.1,42.7
		c7.3-1.9,12.4-2.3,15.8-2.1c0.9,0.1,3.9,5.1,1.9,5.1c-4.9,0.1-10.2,0.7-18.2,2.6c-0.1,0.7-0.1,1.3-0.1,1.9
		c-0.1,1.5-3.1,0.2-4.5-0.7c-0.1,0-0.3,0-0.3,0.1c-1.7,0.4-4.2-3.9-3-4.3C12.5,143.1,13.5,142.8,14.5,142.5z"/>
	<path class="st9" d="M49.5,141c-1.1,2.3-3.8,4.9-7.1,4.9c-4.9,0-8.7-5.1-8.7-13.2c0-12.1,5.5-24.1,13.6-24.1c4.5,0,6.5,2.9,6.5,4.9
		c0,0.3-0.1,0.7-0.1,0.7c0.6,0.2,3.2,0.3,2.8,1.8c-2.1,7.5-3.7,14.4-3.7,19.7c0,3.1,0.5,5.1,2.8,5.1c3.5,0,4.4-4.3,4.9-8.3
		c0,0,1.9-0.2,1.9,1.8c0,3.5-2.7,11.1-7.8,11.1c-3.1,0-4.7-2.8-4.8-4.4H49.5z M41.8,141.3c3.9,0,7.5-16,7.5-18.4
		c0,0-2.1-0.4-3.1-1.5c1.4-1.9,2.3-4.3,2.3-6.7c0-0.6,0-2.2-1.3-2.2c-4.9,0-7.9,16-7.9,23C39.4,139.7,40.1,141.3,41.8,141.3z"/>
	<path class="st9" d="M71.1,123.1c-2.1,5.9-5.3,15.8-5.2,22.1c0,0-0.9,1-2.3,1c-3,0-4.5-3.2-4.5-8.7c0-11.5,3.1-27.6,4.7-27.6
		c2.1,0,4.2,1.3,4,2.3c-1.3,6.6-3.4,15.2-3.4,19.5h0.3c2.5-7.4,4.9-14.3,6.9-19.2c0.3-0.6,0.9-0.6,1.5-0.6c1.8,0,4.5,0.9,4.3,3
		c-0.4,4.7-1.5,12.1-1.6,17.4H76c2.5-7.4,4.7-16,8.5-23.2c0.3-0.6,0.9-0.6,1.5-0.6c1.8,0,4.9,1.2,4.7,3.3
		c-0.5,6.8-4.1,16.9-4.1,24.4c0,3.4,0.9,5.1,2.7,5.1c2.2,0,3.5-3.5,4.1-5.3c0,0,1.5,0.1,1.5,1.8c0,2.9-2.9,8-7.5,8
		c-4.5,0-5.8-4.8-5.8-10.2c0-2.9,1.3-9.8,2-13.2h-0.8c-2.7,5.9-5.9,18.4-5.8,24.7c0,0-0.9,1-2.3,1c-3,0-3.5-2.9-3.6-7.9
		c-0.1-5.5,0.2-11.8,0.7-17.1H71.1z"/>
	<path class="st9" d="M108.2,141c-1.1,2.3-3.8,4.9-7.1,4.9c-4.9,0-8.7-5.1-8.7-13.2c0-12.1,5.5-24.1,13.6-24.1
		c4.5,0,6.5,2.9,6.5,4.9c0,0.3-0.1,0.7-0.1,0.7c0.6,0.2,3.2,0.3,2.8,1.8c-2.1,7.5-3.7,14.4-3.7,19.7c0,3.1,0.5,5.1,2.8,5.1
		c3.5,0,4.4-4.3,4.9-8.3c0,0,1.9-0.2,1.9,1.8c0,3.5-2.7,11.1-7.8,11.1c-3.1,0-4.7-2.8-4.8-4.4H108.2z M100.4,141.3
		c3.9,0,7.5-16,7.5-18.4c0,0-2.1-0.4-3.1-1.5c1.4-1.9,2.3-4.3,2.3-6.7c0-0.6,0-2.2-1.3-2.2c-4.9,0-7.9,16-7.9,23
		C98,139.7,98.7,141.3,100.4,141.3z"/>
	<path class="st9" d="M131.1,118.6c-3.7,0.3-9.3,2.5-11.9,3.1c-0.5,0.1-1.8-3.4-1.8-4.6c0-3.3,17.2-5.7,19.5-5.7
		c1.1,0,2.2,2.5,2.2,3.3c-2.5,2.9-16.8,20.2-17.6,24.1c5.2-1.1,8.9-2.3,14.4-2.3c1.7,0.3,2.5,4.2,2.5,4.7c0,1.3-8.1,1.7-10.5,2.2
		c-2.8,0.7-6.9,2-9.4,3.2c-2.3,0.4-2.3-2.5-2.3-4.2C116.1,137.1,126.5,124.1,131.1,118.6z"/>
	<path class="st9" d="M146.9,108.7c0.9,0.5,1.5,1.1,1.7,1.7c0,0,0.9-0.8,2.3-0.8c7,0,8.1,6.5,7.9,13.4c-0.3,7.3-2.8,23.2-11.4,23.2
		c-7,0-9.5-9.2-9.3-16.6C138.5,121,142.7,110,146.9,108.7z M146.3,141.6c6.2,0,8.3-17.8,8.4-21.8c0.1-1.9,0.5-6.7-2.2-6.7
		c-3.9,0-7,11.7-7.7,15.5c-0.1,0.3-1.5-0.3-1.9-0.6c0,0-0.4,1.9-0.5,4.3C142.2,137.4,143.5,141.6,146.3,141.6z"/>
	<path class="st9" d="M171.6,122.4c-2.7,5.9-6.3,17.3-6.2,23.6c0,0-0.9,1-2.3,1c-3,0-3.8-3.6-3.8-8.7c0-14.2,1.7-27.6,5.8-27.6
		c0.8,0,2.3,0.1,2.1,1.8c-0.8,6.4-2.7,12.6-2.7,19.2h0.3c2.5-7.4,5.1-15.4,8.8-22.6c0.3-0.6,0.9-0.6,1.5-0.6c1.8,0,4.9,1.2,4.7,3.3
		c-0.5,6.8-4.1,15.5-4.1,24.4c0,3.4,0.9,5.1,2.7,5.1c2.2,0,3.5-3.5,4.1-5.3c0,0,1.5,0.1,1.5,1.8c0,2.9-2.9,8-7.5,8
		c-4.5,0-5.8-4.8-5.8-10.2c0-2.9,1.1-9.8,1.7-13.2H171.6z"/>
</g>
</svg>
